<svg width="70" height="20" viewBox="0 0 70 20" fill="none" xmlns="http://www.w3.org/2000/svg">
<rect width="70" height="20" rx="3" fill="#EC1F46"/>
<path d="M9.83 5.88H14.35V6.73H10.85V8.96H14.15V9.81H10.85V13H9.83V5.88ZM15.4138 5.64H16.4138V13H15.4138V5.64ZM22.5043 7.96V13H21.5043V12.14C21.3576 12.44 21.1376 12.67 20.8443 12.83C20.5576 12.99 20.221 13.07 19.8343 13.07C19.3876 13.07 18.9943 12.9633 18.6543 12.75C18.321 12.5367 18.061 12.2367 17.8743 11.85C17.6876 11.4567 17.5943 11 17.5943 10.48C17.5943 9.96 17.6876 9.5 17.8743 9.1C18.0676 8.7 18.3343 8.39 18.6743 8.17C19.0143 7.95 19.401 7.84 19.8343 7.84C20.221 7.84 20.5576 7.92333 20.8443 8.09C21.131 8.25 21.351 8.48 21.5043 8.78V7.96H22.5043ZM20.0743 12.27C20.5276 12.27 20.8776 12.1133 21.1243 11.8C21.3776 11.48 21.5043 11.0333 21.5043 10.46C21.5043 9.88 21.3776 9.43333 21.1243 9.12C20.8776 8.80667 20.5243 8.65 20.0643 8.65C19.611 8.65 19.2543 8.81333 18.9943 9.14C18.741 9.46 18.6143 9.90667 18.6143 10.48C18.6143 11.0467 18.741 11.4867 18.9943 11.8C19.2543 12.1133 19.6143 12.27 20.0743 12.27ZM25.748 13.07C24.868 13.07 24.1747 12.8567 23.668 12.43L23.968 11.7C24.4947 12.1 25.098 12.3 25.778 12.3C26.1247 12.3 26.388 12.2433 26.568 12.13C26.748 12.01 26.838 11.8433 26.838 11.63C26.838 11.45 26.7747 11.31 26.648 11.21C26.528 11.1033 26.3214 11.0133 26.028 10.94L25.188 10.74C24.748 10.6467 24.4114 10.4833 24.178 10.25C23.9514 10.01 23.838 9.71333 23.838 9.36C23.838 8.90667 24.018 8.54 24.378 8.26C24.7447 7.98 25.228 7.84 25.828 7.84C26.188 7.84 26.528 7.89667 26.848 8.01C27.1747 8.12333 27.4514 8.28333 27.678 8.49L27.368 9.2C26.8814 8.81333 26.368 8.62 25.828 8.62C25.5014 8.62 25.248 8.68333 25.068 8.81C24.888 8.93 24.798 9.1 24.798 9.32C24.798 9.49333 24.8547 9.63333 24.968 9.74C25.0814 9.84667 25.2614 9.93 25.508 9.99L26.368 10.2C26.848 10.3067 27.2014 10.4767 27.428 10.71C27.6614 10.9367 27.778 11.2333 27.778 11.6C27.778 12.0533 27.5947 12.4133 27.228 12.68C26.868 12.94 26.3747 13.07 25.748 13.07ZM31.6485 7.84C32.8552 7.84 33.4585 8.51333 33.4585 9.86V13H32.4485V9.92C32.4485 9.48 32.3618 9.16 32.1885 8.96C32.0218 8.76 31.7518 8.66 31.3785 8.66C30.9518 8.66 30.6085 8.79333 30.3485 9.06C30.0952 9.32667 29.9685 9.68333 29.9685 10.13V13H28.9685V5.64H29.9685V8.74C30.1352 8.44667 30.3652 8.22333 30.6585 8.07C30.9518 7.91667 31.2818 7.84 31.6485 7.84ZM40.7123 13.08C40.0389 13.08 39.4523 12.9333 38.9523 12.64C38.4589 12.34 38.0756 11.9167 37.8023 11.37C37.5356 10.8233 37.4023 10.18 37.4023 9.44C37.4023 8.69333 37.5356 8.04667 37.8023 7.5C38.0689 6.95333 38.4523 6.53333 38.9523 6.24C39.4523 5.94667 40.0389 5.8 40.7123 5.8C41.3923 5.8 41.9789 5.94667 42.4723 6.24C42.9723 6.53333 43.3556 6.95333 43.6223 7.5C43.8889 8.04667 44.0223 8.69 44.0223 9.43C44.0223 10.1767 43.8889 10.8233 43.6223 11.37C43.3556 11.9167 42.9723 12.34 42.4723 12.64C41.9723 12.9333 41.3856 13.08 40.7123 13.08ZM40.7123 12.24C41.4256 12.24 41.9789 11.9967 42.3723 11.51C42.7723 11.0233 42.9723 10.33 42.9723 9.43C42.9723 8.53667 42.7723 7.85 42.3723 7.37C41.9789 6.88333 41.4256 6.64 40.7123 6.64C39.9989 6.64 39.4456 6.88333 39.0523 7.37C38.6589 7.85 38.4623 8.53667 38.4623 9.43C38.4623 10.33 38.6589 11.0233 39.0523 11.51C39.4523 11.9967 40.0056 12.24 40.7123 12.24ZM47.4852 6.45C46.9319 6.45 46.6552 6.76667 46.6552 7.4V7.96H47.8352V8.74H46.6552V13H45.6452V8.74H44.6752V7.96H45.6452V7.32C45.6452 6.76 45.7852 6.33333 46.0652 6.04C46.3519 5.74667 46.7519 5.6 47.2652 5.6C47.5319 5.6 47.7752 5.63333 47.9952 5.7V6.53C47.8152 6.47667 47.6452 6.45 47.4852 6.45ZM50.952 6.45C50.3987 6.45 50.122 6.76667 50.122 7.4V7.96H51.302V8.74H50.122V13H49.112V8.74H48.142V7.96H49.112V7.32C49.112 6.76 49.252 6.33333 49.532 6.04C49.8187 5.74667 50.2187 5.6 50.732 5.6C50.9987 5.6 51.242 5.63333 51.462 5.7V6.53C51.282 6.47667 51.112 6.45 50.952 6.45ZM56.5791 10.5H52.9791C53.0124 11.68 53.5491 12.27 54.5891 12.27C55.1691 12.27 55.6991 12.08 56.1791 11.7L56.4891 12.42C56.2624 12.62 55.9724 12.78 55.6191 12.9C55.2724 13.0133 54.9224 13.07 54.5691 13.07C53.7624 13.07 53.1291 12.84 52.6691 12.38C52.2091 11.9133 51.9791 11.2767 51.9791 10.47C51.9791 9.95667 52.0791 9.5 52.2791 9.1C52.4857 8.7 52.7724 8.39 53.1391 8.17C53.5057 7.95 53.9224 7.84 54.3891 7.84C55.0691 7.84 55.6024 8.06 55.9891 8.5C56.3824 8.94 56.5791 9.55 56.5791 10.33V10.5ZM54.4091 8.59C54.0291 8.59 53.7191 8.70333 53.4791 8.93C53.2391 9.15667 53.0857 9.48 53.0191 9.9H55.6891C55.6491 9.47333 55.5191 9.15 55.2991 8.93C55.0791 8.70333 54.7824 8.59 54.4091 8.59ZM60.248 7.84C60.4014 7.84 60.5614 7.86333 60.728 7.91L60.708 8.83C60.528 8.76333 60.3314 8.73 60.118 8.73C59.658 8.73 59.3114 8.87 59.078 9.15C58.8514 9.42333 58.738 9.77 58.738 10.19V13H57.738V9.38C57.738 8.85333 57.7114 8.38 57.658 7.96H58.598L58.688 8.87C58.8214 8.53667 59.028 8.28333 59.308 8.11C59.588 7.93 59.9014 7.84 60.248 7.84Z" fill="white"/>
</svg>
