<svg width="350" height="40" viewBox="0 0 350 40" fill="none" xmlns="http://www.w3.org/2000/svg">
<rect width="350" height="40" rx="6" fill="#F5FAFE"/>
<path d="M26.768 24.096C26.328 24.096 25.916 24.06 25.532 23.988C25.148 23.908 24.792 23.788 24.464 23.628C24.136 23.46 23.84 23.256 23.576 23.016L23.948 22.26C24.38 22.62 24.812 22.876 25.244 23.028C25.684 23.18 26.196 23.256 26.78 23.256C27.46 23.256 27.988 23.124 28.364 22.86C28.74 22.588 28.928 22.208 28.928 21.72C28.928 21.424 28.832 21.188 28.64 21.012C28.456 20.828 28.2 20.684 27.872 20.58C27.552 20.468 27.188 20.364 26.78 20.268C26.372 20.18 25.984 20.08 25.616 19.968C25.248 19.848 24.92 19.7 24.632 19.524C24.352 19.348 24.132 19.124 23.972 18.852C23.812 18.58 23.732 18.24 23.732 17.832C23.732 17.344 23.86 16.916 24.116 16.548C24.372 16.172 24.732 15.88 25.196 15.672C25.66 15.464 26.208 15.36 26.84 15.36C27.232 15.36 27.608 15.404 27.968 15.492C28.328 15.572 28.66 15.692 28.964 15.852C29.276 16.012 29.552 16.208 29.792 16.44L29.408 17.196C29.016 16.852 28.612 16.6 28.196 16.44C27.78 16.28 27.328 16.2 26.84 16.2C26.176 16.2 25.656 16.34 25.28 16.62C24.904 16.9 24.716 17.292 24.716 17.796C24.716 18.108 24.8 18.36 24.968 18.552C25.136 18.744 25.372 18.9 25.676 19.02C25.98 19.132 26.328 19.236 26.72 19.332C27.136 19.428 27.536 19.532 27.92 19.644C28.304 19.756 28.644 19.896 28.94 20.064C29.244 20.224 29.484 20.436 29.66 20.7C29.836 20.956 29.924 21.284 29.924 21.684C29.924 22.172 29.796 22.596 29.54 22.956C29.284 23.316 28.92 23.596 28.448 23.796C27.976 23.996 27.416 24.096 26.768 24.096ZM36.3566 23.28C36.0926 23.528 35.7526 23.724 35.3366 23.868C34.9286 24.012 34.5086 24.084 34.0766 24.084C33.4526 24.084 32.9126 23.96 32.4566 23.712C32.0086 23.464 31.6606 23.108 31.4126 22.644C31.1726 22.172 31.0526 21.612 31.0526 20.964C31.0526 20.34 31.1726 19.792 31.4126 19.32C31.6526 18.848 31.9846 18.48 32.4086 18.216C32.8406 17.952 33.3366 17.82 33.8966 17.82C34.4326 17.82 34.8926 17.94 35.2766 18.18C35.6606 18.412 35.9526 18.748 36.1526 19.188C36.3606 19.628 36.4646 20.156 36.4646 20.772V20.952H31.9046V20.316H35.9126L35.6006 20.76C35.6166 20.056 35.4766 19.516 35.1806 19.14C34.8926 18.764 34.4686 18.576 33.9086 18.576C33.3246 18.576 32.8646 18.784 32.5286 19.2C32.2006 19.608 32.0366 20.176 32.0366 20.904C32.0366 21.688 32.2086 22.28 32.5526 22.68C32.9046 23.08 33.4166 23.28 34.0886 23.28C34.4406 23.28 34.7766 23.224 35.0966 23.112C35.4246 22.992 35.7366 22.812 36.0326 22.572L36.3566 23.28ZM40.2559 24.084C39.7199 24.084 39.2479 23.96 38.8399 23.712C38.4399 23.456 38.1279 23.096 37.9039 22.632C37.6879 22.16 37.5799 21.608 37.5799 20.976C37.5799 20.344 37.6919 19.792 37.9159 19.32C38.1399 18.848 38.4519 18.48 38.8519 18.216C39.2599 17.952 39.7279 17.82 40.2559 17.82C40.8079 17.82 41.2759 17.956 41.6599 18.228C42.0439 18.5 42.3039 18.888 42.4399 19.392L42.2959 19.488V17.964H43.2559V24H42.2959V22.44L42.4399 22.512C42.3039 23.016 42.0439 23.404 41.6599 23.676C41.2759 23.948 40.8079 24.084 40.2559 24.084ZM40.4479 23.28C41.0399 23.28 41.4959 23.08 41.8159 22.68C42.1359 22.272 42.2959 21.696 42.2959 20.952C42.2959 20.208 42.1319 19.636 41.8039 19.236C41.4839 18.836 41.0319 18.636 40.4479 18.636C39.8559 18.636 39.3919 18.844 39.0559 19.26C38.7279 19.668 38.5639 20.24 38.5639 20.976C38.5639 21.712 38.7279 22.28 39.0559 22.68C39.3919 23.08 39.8559 23.28 40.4479 23.28ZM45.1352 24V19.656C45.1352 19.376 45.1272 19.096 45.1112 18.816C45.1032 18.528 45.0792 18.244 45.0392 17.964H45.9632L46.0952 19.452L45.9632 19.416C46.0752 18.888 46.3152 18.492 46.6832 18.228C47.0592 17.956 47.4792 17.82 47.9432 17.82C48.0472 17.82 48.1432 17.828 48.2312 17.844C48.3272 17.852 48.4152 17.868 48.4952 17.892L48.4712 18.78C48.2872 18.716 48.0752 18.684 47.8352 18.684C47.4192 18.684 47.0832 18.776 46.8272 18.96C46.5792 19.144 46.3952 19.38 46.2752 19.668C46.1632 19.948 46.1072 20.244 46.1072 20.556V24H45.1352ZM51.8977 24.084C51.3057 24.084 50.7937 23.956 50.3617 23.7C49.9297 23.444 49.5937 23.084 49.3537 22.62C49.1217 22.156 49.0057 21.608 49.0057 20.976C49.0057 20.352 49.1257 19.804 49.3657 19.332C49.6057 18.852 49.9457 18.48 50.3857 18.216C50.8257 17.952 51.3457 17.82 51.9457 17.82C52.3537 17.82 52.7457 17.892 53.1217 18.036C53.5057 18.172 53.8217 18.364 54.0697 18.612L53.7457 19.332C53.4497 19.1 53.1577 18.928 52.8697 18.816C52.5897 18.696 52.2977 18.636 51.9937 18.636C51.3857 18.636 50.9017 18.84 50.5417 19.248C50.1897 19.656 50.0137 20.232 50.0137 20.976C50.0137 21.712 50.1897 22.28 50.5417 22.68C50.8937 23.08 51.3777 23.28 51.9937 23.28C52.2897 23.28 52.5817 23.224 52.8697 23.112C53.1577 22.992 53.4497 22.816 53.7457 22.584L54.0697 23.304C53.8137 23.544 53.4897 23.736 53.0977 23.88C52.7137 24.016 52.3137 24.084 51.8977 24.084ZM55.3071 24V15.168H56.2791V19.188L56.1231 19.308C56.2911 18.82 56.5711 18.452 56.9631 18.204C57.3551 17.948 57.8071 17.82 58.3191 17.82C59.7671 17.82 60.4911 18.616 60.4911 20.208V24H59.5191V20.256C59.5191 19.696 59.4071 19.288 59.1831 19.032C58.9591 18.768 58.6071 18.636 58.1271 18.636C57.5671 18.636 57.1191 18.808 56.7831 19.152C56.4471 19.496 56.2791 19.96 56.2791 20.544V24H55.3071ZM65.5755 24V15.456H66.5595V23.16H70.8435V24H65.5755ZM74.4789 24.084C73.9029 24.084 73.3989 23.956 72.9669 23.7C72.5429 23.444 72.2109 23.084 71.9709 22.62C71.7389 22.148 71.6229 21.592 71.6229 20.952C71.6229 20.32 71.7389 19.768 71.9709 19.296C72.2109 18.824 72.5429 18.46 72.9669 18.204C73.3989 17.948 73.9029 17.82 74.4789 17.82C75.0549 17.82 75.5549 17.948 75.9789 18.204C76.4109 18.46 76.7429 18.824 76.9749 19.296C77.2149 19.768 77.3349 20.32 77.3349 20.952C77.3349 21.592 77.2149 22.148 76.9749 22.62C76.7429 23.084 76.4109 23.444 75.9789 23.7C75.5549 23.956 75.0549 24.084 74.4789 24.084ZM74.4789 23.28C75.0709 23.28 75.5269 23.084 75.8469 22.692C76.1749 22.292 76.3389 21.712 76.3389 20.952C76.3389 20.208 76.1749 19.636 75.8469 19.236C75.5189 18.836 75.0629 18.636 74.4789 18.636C73.8949 18.636 73.4349 18.836 73.0989 19.236C72.7709 19.636 72.6069 20.208 72.6069 20.952C72.6069 21.712 72.7669 22.292 73.0869 22.692C73.4149 23.084 73.8789 23.28 74.4789 23.28ZM81.3821 24.084C80.7901 24.084 80.2781 23.956 79.8461 23.7C79.4141 23.444 79.0781 23.084 78.8381 22.62C78.6061 22.156 78.4901 21.608 78.4901 20.976C78.4901 20.352 78.6101 19.804 78.8501 19.332C79.0901 18.852 79.4301 18.48 79.8701 18.216C80.3101 17.952 80.8301 17.82 81.4301 17.82C81.8381 17.82 82.2301 17.892 82.6061 18.036C82.9901 18.172 83.3061 18.364 83.5541 18.612L83.2301 19.332C82.9341 19.1 82.6421 18.928 82.3541 18.816C82.0741 18.696 81.7821 18.636 81.4781 18.636C80.8701 18.636 80.3861 18.84 80.0261 19.248C79.6741 19.656 79.4981 20.232 79.4981 20.976C79.4981 21.712 79.6741 22.28 80.0261 22.68C80.3781 23.08 80.8621 23.28 81.4781 23.28C81.7741 23.28 82.0661 23.224 82.3541 23.112C82.6421 22.992 82.9341 22.816 83.2301 22.584L83.5541 23.304C83.2981 23.544 82.9741 23.736 82.5821 23.88C82.1981 24.016 81.7981 24.084 81.3821 24.084ZM87.1075 24.084C86.5715 24.084 86.0995 23.96 85.6915 23.712C85.2915 23.456 84.9795 23.096 84.7555 22.632C84.5395 22.16 84.4315 21.608 84.4315 20.976C84.4315 20.344 84.5435 19.792 84.7675 19.32C84.9915 18.848 85.3035 18.48 85.7035 18.216C86.1115 17.952 86.5795 17.82 87.1075 17.82C87.6595 17.82 88.1275 17.956 88.5115 18.228C88.8955 18.5 89.1555 18.888 89.2915 19.392L89.1475 19.488V17.964H90.1075V24H89.1475V22.44L89.2915 22.512C89.1555 23.016 88.8955 23.404 88.5115 23.676C88.1275 23.948 87.6595 24.084 87.1075 24.084ZM87.2995 23.28C87.8915 23.28 88.3475 23.08 88.6675 22.68C88.9875 22.272 89.1475 21.696 89.1475 20.952C89.1475 20.208 88.9835 19.636 88.6555 19.236C88.3355 18.836 87.8835 18.636 87.2995 18.636C86.7075 18.636 86.2435 18.844 85.9075 19.26C85.5795 19.668 85.4155 20.24 85.4155 20.976C85.4155 21.712 85.5795 22.28 85.9075 22.68C86.2435 23.08 86.7075 23.28 87.2995 23.28ZM91.1348 18.732V17.964H95.0108V18.732H91.1348ZM94.9868 23.136V23.964C94.8508 24.004 94.7148 24.032 94.5788 24.048C94.4508 24.072 94.3068 24.084 94.1468 24.084C93.5868 24.084 93.1388 23.924 92.8028 23.604C92.4748 23.284 92.3108 22.804 92.3108 22.164V16.416L93.2828 16.068V22.032C93.2828 22.352 93.3268 22.6 93.4148 22.776C93.5108 22.952 93.6388 23.076 93.7988 23.148C93.9588 23.212 94.1388 23.244 94.3388 23.244C94.4588 23.244 94.5668 23.236 94.6628 23.22C94.7588 23.204 94.8668 23.176 94.9868 23.136ZM96.1821 24V17.964H97.1541V24H96.1821ZM96.0861 15.408H97.2741V16.512H96.0861V15.408ZM101.537 24.084C100.961 24.084 100.457 23.956 100.025 23.7C99.6015 23.444 99.2695 23.084 99.0295 22.62C98.7975 22.148 98.6815 21.592 98.6815 20.952C98.6815 20.32 98.7975 19.768 99.0295 19.296C99.2695 18.824 99.6015 18.46 100.025 18.204C100.457 17.948 100.961 17.82 101.537 17.82C102.113 17.82 102.613 17.948 103.037 18.204C103.469 18.46 103.801 18.824 104.033 19.296C104.273 19.768 104.393 20.32 104.393 20.952C104.393 21.592 104.273 22.148 104.033 22.62C103.801 23.084 103.469 23.444 103.037 23.7C102.613 23.956 102.113 24.084 101.537 24.084ZM101.537 23.28C102.129 23.28 102.585 23.084 102.905 22.692C103.233 22.292 103.397 21.712 103.397 20.952C103.397 20.208 103.233 19.636 102.905 19.236C102.577 18.836 102.121 18.636 101.537 18.636C100.953 18.636 100.493 18.836 100.157 19.236C99.8295 19.636 99.6655 20.208 99.6655 20.952C99.6655 21.712 99.8255 22.292 100.145 22.692C100.473 23.084 100.937 23.28 101.537 23.28ZM105.909 24V19.656C105.909 19.376 105.901 19.096 105.885 18.816C105.877 18.528 105.853 18.244 105.813 17.964H106.737L106.845 19.212L106.725 19.308C106.893 18.82 107.173 18.452 107.565 18.204C107.957 17.948 108.409 17.82 108.921 17.82C110.369 17.82 111.093 18.616 111.093 20.208V24H110.121V20.256C110.121 19.696 110.009 19.288 109.785 19.032C109.561 18.768 109.209 18.636 108.729 18.636C108.169 18.636 107.721 18.808 107.385 19.152C107.049 19.496 106.881 19.96 106.881 20.544V24H105.909Z" fill="#333333"/>
<path d="M285 0H344C347.314 0 350 2.68629 350 6V34C350 37.3137 347.314 40 344 40H285V0Z" fill="#EC1F46"/>
<path fill-rule="evenodd" clip-rule="evenodd" d="M317.333 14.6667C314.756 14.6667 312.667 16.756 312.667 19.3333C312.667 21.9107 314.756 24 317.333 24C319.911 24 322 21.9107 322 19.3333C322 16.756 319.911 14.6667 317.333 14.6667ZM311.333 19.3333C311.333 16.0196 314.02 13.3333 317.333 13.3333C320.647 13.3333 323.333 16.0196 323.333 19.3333C323.333 22.6471 320.647 25.3333 317.333 25.3333C314.02 25.3333 311.333 22.6471 311.333 19.3333Z" fill="white"/>
<path fill-rule="evenodd" clip-rule="evenodd" d="M320.629 22.6286C320.889 22.3682 321.311 22.3682 321.571 22.6286L324.471 25.5286C324.732 25.7889 324.732 26.211 324.471 26.4714C324.211 26.7317 323.789 26.7317 323.529 26.4714L320.629 23.5714C320.368 23.311 320.368 22.8889 320.629 22.6286Z" fill="white"/>
</svg>
