<svg width="65" height="45" viewBox="0 0 65 45" fill="none" xmlns="http://www.w3.org/2000/svg">
<rect width="65" height="45" rx="4" fill="#EC1F46"/>
<path d="M25.064 32.054H23.65V34H21.886V32.054H17.546V30.71L22.208 24.032H23.65V30.64H25.064V32.054ZM21.886 30.64V26.846L19.254 30.64H21.886ZM28.1245 32.04V34H26.1645V32.04H28.1245ZM33.6402 27.63C34.2655 27.63 34.8162 27.7653 35.2922 28.036C35.7682 28.2973 36.1369 28.6707 36.3982 29.156C36.6595 29.632 36.7902 30.1827 36.7902 30.808C36.7902 31.4613 36.6409 32.04 36.3422 32.544C36.0435 33.0387 35.6142 33.426 35.0542 33.706C34.4942 33.9767 33.8455 34.112 33.1082 34.112C32.4829 34.112 31.8669 34.0093 31.2602 33.804C30.6535 33.5893 30.1542 33.3047 29.7622 32.95L30.3642 31.634C31.2695 32.3247 32.1935 32.67 33.1362 32.67C33.7615 32.67 34.2375 32.516 34.5642 32.208C34.9002 31.8907 35.0682 31.4427 35.0682 30.864C35.0682 30.3133 34.8955 29.8747 34.5502 29.548C34.2142 29.212 33.7615 29.044 33.1922 29.044C32.8002 29.044 32.4315 29.1187 32.0862 29.268C31.7409 29.408 31.4375 29.618 31.1762 29.898H30.0842V24.032H36.3282V25.432H31.8482V28.148C32.3522 27.8027 32.9495 27.63 33.6402 27.63ZM36.9527 34.826L40.5787 23.458H42.0767L38.4227 34.826H36.9527ZM45.0988 29.45C45.5454 29.45 45.9388 29.5467 46.2788 29.74C46.6188 29.9267 46.8821 30.1933 47.0688 30.54C47.2554 30.88 47.3488 31.2733 47.3488 31.72C47.3488 32.1867 47.2421 32.6 47.0288 32.96C46.8154 33.3133 46.5088 33.59 46.1088 33.79C45.7088 33.9833 45.2454 34.08 44.7188 34.08C44.2721 34.08 43.8321 34.0067 43.3988 33.86C42.9654 33.7067 42.6088 33.5033 42.3288 33.25L42.7588 32.31C43.4054 32.8033 44.0654 33.05 44.7388 33.05C45.1854 33.05 45.5254 32.94 45.7588 32.72C45.9988 32.4933 46.1188 32.1733 46.1188 31.76C46.1188 31.3667 45.9954 31.0533 45.7488 30.82C45.5088 30.58 45.1854 30.46 44.7788 30.46C44.4988 30.46 44.2354 30.5133 43.9888 30.62C43.7421 30.72 43.5254 30.87 43.3388 31.07H42.5588V26.88H47.0188V27.88H43.8188V29.82C44.1788 29.5733 44.6054 29.45 45.0988 29.45Z" fill="white"/>
<path d="M9.944 16.064C9.18667 16.064 8.61067 15.8667 8.216 15.472C7.82667 15.0773 7.632 14.4987 7.632 13.736V10.304H8.44V13.792C8.44 14.32 8.56533 14.72 8.816 14.992C9.072 15.2587 9.448 15.392 9.944 15.392C10.4347 15.392 10.8053 15.256 11.056 14.984C11.312 14.712 11.44 14.3147 11.44 13.792V10.304H12.256V13.736C12.256 14.4987 12.0587 15.0773 11.664 15.472C11.2747 15.8667 10.7013 16.064 9.944 16.064ZM14.8828 16.056C14.1788 16.056 13.6241 15.8853 13.2188 15.544L13.4588 14.96C13.8801 15.28 14.3628 15.44 14.9068 15.44C15.1841 15.44 15.3948 15.3947 15.5388 15.304C15.6828 15.208 15.7548 15.0747 15.7548 14.904C15.7548 14.76 15.7041 14.648 15.6028 14.568C15.5068 14.4827 15.3415 14.4107 15.1068 14.352L14.4348 14.192C14.0828 14.1173 13.8135 13.9867 13.6268 13.8C13.4455 13.608 13.3548 13.3707 13.3548 13.088C13.3548 12.7253 13.4988 12.432 13.7868 12.208C14.0801 11.984 14.4668 11.872 14.9468 11.872C15.2348 11.872 15.5068 11.9173 15.7628 12.008C16.0241 12.0987 16.2455 12.2267 16.4268 12.392L16.1788 12.96C15.7895 12.6507 15.3788 12.496 14.9468 12.496C14.6855 12.496 14.4828 12.5467 14.3388 12.648C14.1948 12.744 14.1228 12.88 14.1228 13.056C14.1228 13.1947 14.1681 13.3067 14.2588 13.392C14.3495 13.4773 14.4935 13.544 14.6908 13.592L15.3788 13.76C15.7628 13.8453 16.0455 13.9813 16.2268 14.168C16.4135 14.3493 16.5068 14.5867 16.5068 14.88C16.5068 15.2427 16.3601 15.5307 16.0668 15.744C15.7788 15.952 15.3841 16.056 14.8828 16.056ZM20.8992 14H18.0192C18.0459 14.944 18.4752 15.416 19.3072 15.416C19.7712 15.416 20.1952 15.264 20.5792 14.96L20.8272 15.536C20.6459 15.696 20.4139 15.824 20.1312 15.92C19.8539 16.0107 19.5739 16.056 19.2912 16.056C18.6459 16.056 18.1392 15.872 17.7712 15.504C17.4032 15.1307 17.2192 14.6213 17.2192 13.976C17.2192 13.5653 17.2992 13.2 17.4592 12.88C17.6245 12.56 17.8539 12.312 18.1472 12.136C18.4405 11.96 18.7739 11.872 19.1472 11.872C19.6912 11.872 20.1179 12.048 20.4272 12.4C20.7419 12.752 20.8992 13.24 20.8992 13.864V14ZM19.1632 12.472C18.8592 12.472 18.6112 12.5627 18.4192 12.744C18.2272 12.9253 18.1045 13.184 18.0512 13.52H20.1872C20.1552 13.1787 20.0512 12.92 19.8752 12.744C19.6992 12.5627 19.4619 12.472 19.1632 12.472ZM23.8344 11.872C23.957 11.872 24.085 11.8907 24.2184 11.928L24.2024 12.664C24.0584 12.6107 23.901 12.584 23.7304 12.584C23.3624 12.584 23.085 12.696 22.8984 12.92C22.717 13.1387 22.6264 13.416 22.6264 13.752V16H21.8264V13.104C21.8264 12.6827 21.805 12.304 21.7624 11.968H22.5144L22.5864 12.696C22.693 12.4293 22.8584 12.2267 23.0824 12.088C23.3064 11.944 23.557 11.872 23.8344 11.872ZM31.607 16H30.735L30.023 14.104C29.9483 13.9013 29.839 13.7627 29.695 13.688C29.551 13.608 29.3537 13.568 29.103 13.568H27.855V16H27.039V10.304H29.383C30.007 10.304 30.4843 10.4427 30.815 10.72C31.151 10.9973 31.319 11.3947 31.319 11.912C31.319 12.2853 31.2203 12.6027 31.023 12.864C30.8257 13.1253 30.5457 13.3093 30.183 13.416C30.5137 13.4747 30.7537 13.7093 30.903 14.12L31.607 16ZM29.287 12.904C29.703 12.904 30.0123 12.824 30.215 12.664C30.4177 12.4987 30.519 12.2533 30.519 11.928C30.519 11.6027 30.4177 11.3627 30.215 11.208C30.0177 11.048 29.7083 10.968 29.287 10.968H27.855V12.904H29.287ZM36.2331 11.968V16H35.4331V15.312C35.3158 15.552 35.1398 15.736 34.9051 15.864C34.6758 15.992 34.4065 16.056 34.0971 16.056C33.7398 16.056 33.4251 15.9707 33.1531 15.8C32.8865 15.6293 32.6785 15.3893 32.5291 15.08C32.3798 14.7653 32.3051 14.4 32.3051 13.984C32.3051 13.568 32.3798 13.2 32.5291 12.88C32.6838 12.56 32.8971 12.312 33.1691 12.136C33.4411 11.96 33.7505 11.872 34.0971 11.872C34.4065 11.872 34.6758 11.9387 34.9051 12.072C35.1345 12.2 35.3105 12.384 35.4331 12.624V11.968H36.2331ZM34.2891 15.416C34.6518 15.416 34.9318 15.2907 35.1291 15.04C35.3318 14.784 35.4331 14.4267 35.4331 13.968C35.4331 13.504 35.3318 13.1467 35.1291 12.896C34.9318 12.6453 34.6491 12.52 34.2811 12.52C33.9185 12.52 33.6331 12.6507 33.4251 12.912C33.2225 13.168 33.1211 13.5253 33.1211 13.984C33.1211 14.4373 33.2225 14.7893 33.4251 15.04C33.6331 15.2907 33.9211 15.416 34.2891 15.416ZM38.4681 12.592V14.616C38.4681 14.8933 38.5268 15.0907 38.6441 15.208C38.7668 15.32 38.9348 15.376 39.1481 15.376C39.2868 15.376 39.4281 15.3547 39.5721 15.312V15.968C39.3961 16.0267 39.1961 16.056 38.9721 16.056C38.5561 16.056 38.2335 15.9387 38.0041 15.704C37.7748 15.4693 37.6601 15.128 37.6601 14.68V12.592H36.8761V11.968H37.6601V10.96L38.4681 10.68V11.968H39.5801V12.592H38.4681ZM41.3666 12.592V14.616C41.3666 14.8933 41.4252 15.0907 41.5426 15.208C41.6652 15.32 41.8332 15.376 42.0466 15.376C42.1852 15.376 42.3266 15.3547 42.4706 15.312V15.968C42.2946 16.0267 42.0946 16.056 41.8706 16.056C41.4546 16.056 41.1319 15.9387 40.9026 15.704C40.6732 15.4693 40.5586 15.128 40.5586 14.68V12.592H39.7746V11.968H40.5586V10.96L41.3666 10.68V11.968H42.4786V12.592H41.3666ZM43.2248 11.968H44.0248V16H43.2248V11.968ZM44.0888 10.208V11.056H43.1528V10.208H44.0888ZM47.3532 11.872C48.3185 11.872 48.8012 12.4107 48.8012 13.488V16H47.9932V13.536C47.9932 13.184 47.9239 12.928 47.7852 12.768C47.6519 12.608 47.4359 12.528 47.1372 12.528C46.7959 12.528 46.5212 12.6347 46.3132 12.848C46.1105 13.0613 46.0092 13.3467 46.0092 13.704V16H45.2092V13.104C45.2092 12.6827 45.1879 12.304 45.1452 11.968H45.8972L45.9692 12.664C46.0972 12.408 46.2812 12.2133 46.5212 12.08C46.7665 11.9413 47.0439 11.872 47.3532 11.872ZM53.6714 11.968V15.928C53.6714 16.5413 53.5087 17.0027 53.1834 17.312C52.8634 17.6267 52.386 17.784 51.7514 17.784C51.138 17.784 50.602 17.6507 50.1434 17.384L50.2794 16.752C50.53 16.8853 50.77 16.984 50.9994 17.048C51.234 17.112 51.482 17.144 51.7434 17.144C52.4954 17.144 52.8714 16.76 52.8714 15.992V15.12C52.7487 15.3547 52.57 15.5413 52.3354 15.68C52.1007 15.8133 51.8287 15.88 51.5194 15.88C51.1674 15.88 50.8527 15.7973 50.5754 15.632C50.3034 15.4667 50.09 15.232 49.9354 14.928C49.786 14.624 49.7114 14.2747 49.7114 13.88C49.7114 13.4853 49.786 13.136 49.9354 12.832C50.09 12.528 50.3034 12.2933 50.5754 12.128C50.8527 11.9573 51.1674 11.872 51.5194 11.872C51.8287 11.872 52.1007 11.9387 52.3354 12.072C52.57 12.2 52.7487 12.384 52.8714 12.624V11.968H53.6714ZM51.7034 15.232C52.066 15.232 52.3514 15.112 52.5594 14.872C52.7674 14.632 52.8714 14.3013 52.8714 13.88C52.8714 13.4587 52.7674 13.128 52.5594 12.888C52.3567 12.6427 52.0714 12.52 51.7034 12.52C51.3407 12.52 51.0527 12.6427 50.8394 12.888C50.6314 13.128 50.5274 13.4587 50.5274 13.88C50.5274 14.296 50.6314 14.6267 50.8394 14.872C51.0527 15.112 51.3407 15.232 51.7034 15.232ZM56.2656 16.056C55.5616 16.056 55.007 15.8853 54.6016 15.544L54.8416 14.96C55.263 15.28 55.7456 15.44 56.2896 15.44C56.567 15.44 56.7776 15.3947 56.9216 15.304C57.0656 15.208 57.1376 15.0747 57.1376 14.904C57.1376 14.76 57.087 14.648 56.9856 14.568C56.8896 14.4827 56.7243 14.4107 56.4896 14.352L55.8176 14.192C55.4656 14.1173 55.1963 13.9867 55.0096 13.8C54.8283 13.608 54.7376 13.3707 54.7376 13.088C54.7376 12.7253 54.8816 12.432 55.1696 12.208C55.463 11.984 55.8496 11.872 56.3296 11.872C56.6176 11.872 56.8896 11.9173 57.1456 12.008C57.407 12.0987 57.6283 12.2267 57.8096 12.392L57.5616 12.96C57.1723 12.6507 56.7616 12.496 56.3296 12.496C56.0683 12.496 55.8656 12.5467 55.7216 12.648C55.5776 12.744 55.5056 12.88 55.5056 13.056C55.5056 13.1947 55.551 13.3067 55.6416 13.392C55.7323 13.4773 55.8763 13.544 56.0736 13.592L56.7616 13.76C57.1456 13.8453 57.4283 13.9813 57.6096 14.168C57.7963 14.3493 57.8896 14.5867 57.8896 14.88C57.8896 15.2427 57.743 15.5307 57.4496 15.744C57.1616 15.952 56.767 16.056 56.2656 16.056Z" fill="white"/>
</svg>
